<?xml version="1.0" encoding="UTF-8" standalone="no"?>
<!-- Created with Inkscape (http://www.inkscape.org/) -->

<svg
   xmlns:dc="http://purl.org/dc/elements/1.1/"
   xmlns:cc="http://creativecommons.org/ns#"
   xmlns:rdf="http://www.w3.org/1999/02/22-rdf-syntax-ns#"
   xmlns:svg="http://www.w3.org/2000/svg"
   xmlns="http://www.w3.org/2000/svg"
   xmlns:sodipodi="http://sodipodi.sourceforge.net/DTD/sodipodi-0.dtd"
   xmlns:inkscape="http://www.inkscape.org/namespaces/inkscape"
   width="250"
   height="250"
   id="svg2"
   version="1.1"
   inkscape:version="0.48.1 r9760"
   sodipodi:docname="growth_phase_250x250.svg">
  <defs
     id="defs4" />
  <sodipodi:namedview
     id="base"
     pagecolor="#dc2521"
     bordercolor="#666666"
     borderopacity="1.0"
     inkscape:pageopacity="1"
     inkscape:pageshadow="2"
     inkscape:zoom="1.814431"
     inkscape:cx="130.90676"
     inkscape:cy="104.09453"
     inkscape:document-units="px"
     inkscape:current-layer="layer2"
     showgrid="false"
     showguides="true"
     inkscape:guide-bbox="true"
     inkscape:window-width="1276"
     inkscape:window-height="756"
     inkscape:window-x="0"
     inkscape:window-y="0"
     inkscape:window-maximized="1"
     inkscape:snap-global="false"
     fit-margin-top="0"
     fit-margin-left="0"
     fit-margin-right="0"
     fit-margin-bottom="0"
     inkscape:showpageshadow="false"
     units="px">
    <sodipodi:guide
       orientation="0,1"
       position="-831.44491,1001.2497"
       id="guide4074" />
    <sodipodi:guide
       orientation="1,0"
       position="-475,635.34171"
       id="guide3846" />
  </sodipodi:namedview>
  <metadata
     id="metadata7">
    <rdf:RDF>
      <cc:Work
         rdf:about="">
        <dc:format>image/svg+xml</dc:format>
        <dc:type
           rdf:resource="http://purl.org/dc/dcmitype/StillImage" />
        <dc:title></dc:title>
      </cc:Work>
    </rdf:RDF>
  </metadata>
  <g
     inkscape:groupmode="layer"
     id="layer4"
     inkscape:label="bg"
     transform="translate(-75,-74.999996)"
     sodipodi:insensitive="true" />
  <g
     inkscape:label="rings"
     inkscape:groupmode="layer"
     id="layer1"
     style="display:inline"
     transform="translate(-242.57156,-168.0651)"
     sodipodi:insensitive="true" />
  <g
     inkscape:groupmode="layer"
     id="layer3"
     inkscape:label="Text"
     style="display:inline"
     transform="translate(-242.57156,-168.0651)"
     sodipodi:insensitive="true" />
  <g
     inkscape:groupmode="layer"
     id="layer2"
     inkscape:label="creative commons"
     transform="translate(-75,217.0615)"
     style="display:inline">
    <rect
       style="fill:#dc2521;fill-opacity:1;stroke:none"
       id="rect3043"
       width="250"
       height="250"
       x="75"
       y="-217.06152" />
    <path
       style="fill:#ffffff;fill-opacity:1;stroke:none;display:inline"
       d="m 235.31513,-128.91696 0,66.262298 c 77.36731,0.428018 65.54645,-45.238958 66.59127,-66.262328 l -66.59127,0 z"
       id="path3043"
       inkscape:connector-curvature="0"
       sodipodi:nodetypes="ccccc" />
    <path
       style="fill:#ffffff;fill-opacity:1;stroke:#dc252f;stroke-width:1.25608802;stroke-miterlimit:4;stroke-opacity:0.94117647;stroke-dasharray:none;display:inline"
       d="m 234.61987,-129.46863 0,43.88833 c 34.15685,0.495275 38.88608,-16.81263 38.2947,-43.88833 z"
       id="path4004"
       inkscape:connector-curvature="0"
       sodipodi:nodetypes="cccc" />
    <path
       style="fill:#ffffff;fill-opacity:1;stroke:#dc252f;stroke-width:1.27519822;stroke-miterlimit:4;stroke-opacity:0.94117647;stroke-dasharray:none;display:inline"
       d="m 234.66849,-129.47562 0,21.464 c 14.69756,0.0197 13.0969,-5.96217 13.58808,-21.464 l -13.58808,0 z"
       id="rect3997"
       inkscape:connector-curvature="0" />
    <text
       xml:space="preserve"
       style="font-size:28.125px;font-style:normal;font-variant:normal;font-weight:bold;font-stretch:normal;text-align:end;line-height:80.00000119%;letter-spacing:0px;word-spacing:0px;writing-mode:lr-tb;text-anchor:end;fill:#ffffff;fill-opacity:1;stroke:none;display:inline;font-family:Helvetica;-inkscape-font-specification:Helvetica"
       x="233.41545"
       y="-108.19644"
       id="text3894"
       sodipodi:linespacing="80.000001%"><tspan
         sodipodi:role="line"
         id="tspan4010"
         x="233.41545"
         y="-108.19644">THE</tspan><tspan
         sodipodi:role="line"
         id="tspan4012"
         x="233.41545"
         y="-85.696442">GROWTH</tspan><tspan
         sodipodi:role="line"
         id="tspan4014"
         x="233.41545"
         y="-63.196442">PHASE</tspan></text>
    <g
       id="g4097"
       transform="matrix(0.625,0,0,0.625,78.916667,-35.773069)">
      <g
         id="text4030"
         style="font-size:45px;font-style:normal;font-variant:normal;font-weight:normal;font-stretch:normal;text-align:end;line-height:80.00000119%;letter-spacing:0px;word-spacing:0px;writing-mode:lr-tb;text-anchor:end;fill:#000000;fill-opacity:1;stroke:none;font-family:Sans;-inkscape-font-specification:Sans"
         transform="scale(-1,1)" />
      <path
         transform="matrix(0.28812219,0.01323989,-0.01323989,0.28812219,52.58679,-133.27273)"
         d="m 139.77695,289.96283 c 0,6.98055 -5.65886,12.6394 -12.63941,12.6394 -6.98055,0 -12.6394,-5.65885 -12.6394,-12.6394 0,-6.98055 5.65885,-12.63941 12.6394,-12.63941 6.98055,0 12.63941,5.65886 12.63941,12.63941 z"
         sodipodi:ry="12.639405"
         sodipodi:rx="12.639405"
         sodipodi:cy="289.96283"
         sodipodi:cx="127.13754"
         id="path4028"
         style="fill:#ff0000;fill-opacity:0;stroke:#ffffff;stroke-width:3.46709108;stroke-miterlimit:4;stroke-opacity:1;stroke-dasharray:none"
         sodipodi:type="arc" />
      <path
         inkscape:connector-curvature="0"
         id="text4037"
         d="m 85.256195,-50.577805 c -0.408357,0.0055 -0.749761,0.134352 -1.025478,0.384314 -0.236013,0.213981 -0.406627,0.501758 -0.517259,0.860683 l -0.266186,-0.07619 0.14917,0.598451 0.149217,0.603139 0.363307,-0.455198 0.367318,-0.45056 -0.230449,-0.06728 c 0.08762,-0.264913 0.206291,-0.465712 0.353784,-0.600492 0.178287,-0.162901 0.401643,-0.244611 0.6745,-0.248268 0.313695,-0.0041 0.57739,0.08155 0.790957,0.256801 0.211709,0.175281 0.362708,0.411621 0.451407,0.711678 0.08868,0.297868 0.133437,0.608194 0.136946,0.926984 0.0045,0.411134 -0.04179,0.766951 -0.13864,1.076091 -0.09872,0.30697 -0.251835,0.541223 -0.463627,0.695782 -0.211785,0.154559 -0.441764,0.231079 -0.690493,0.234409 -0.302554,0.0041 -0.559594,-0.09542 -0.771622,-0.299278 -0.212022,-0.203858 -0.359063,-0.507829 -0.437792,-0.913574 l -0.536782,0.166677 c 0.119021,0.523945 0.324914,0.924174 0.623096,1.197245 0.29631,0.270897 0.660525,0.403967 1.085587,0.398277 0.439915,-0.0059 0.795359,-0.118538 1.069604,-0.333304 0.27237,-0.216938 0.479141,-0.523445 0.619491,-0.927724 0.138495,-0.40425 0.204604,-0.84037 0.199517,-1.302074 -0.0055,-0.50347 -0.09041,-0.93845 -0.256015,-1.31005 -0.167486,-0.373767 -0.401404,-0.654879 -0.702379,-0.844359 -0.302857,-0.191644 -0.637079,-0.287002 -0.997179,-0.282186 z"
         style="font-size:45px;font-style:normal;font-variant:normal;font-weight:normal;font-stretch:normal;text-align:end;line-height:80.00000119%;letter-spacing:0px;word-spacing:0px;writing-mode:lr-tb;text-anchor:end;fill:#ffffff;fill-opacity:1;stroke:#ffffff;stroke-width:0.25797144;stroke-miterlimit:4;stroke-opacity:0.97254902;stroke-dasharray:none;font-family:Arial;-inkscape-font-specification:Arial" />
    </g>
  </g>
</svg>
